<svg xmlns="http://www.w3.org/2000/svg" xmlns:xlink="http://www.w3.org/1999/xlink" width="44" height="19" viewBox="0 0 44 19"><defs><path id="prefix__a" d="M.08.186h17.752V19H.08z"/><path id="prefix__c" d="M0 .134h17.886V19H0z"/><path id="prefix__e" d="M.101.07h8.841V9H.101z"/></defs><g fill="none" fill-rule="evenodd"><g transform="translate(12)"><mask id="prefix__b" fill="#fff"><use xlink:href="#prefix__a"/></mask><path fill="#009BDE" d="M3.872 18.976c2.241.237 4.076-1.295 4.574-2.863.321-1.016.188-2.396.23-3.48.044-1.123.09-2.287.76-2.904 1.285-1.175 4.202-.402 5.75-1.031a4.256 4.256 0 001.835-1.395c.952-1.243 1.185-3.906.048-5.464C15.984.356 13.8-.214 12.014.48 10.842.94 9.71 2.319 9.443 3.49c-.516 2.2.494 4.678-.853 5.945-.574.544-1.501.647-2.281.737-.72.078-1.611-.09-2.488.06-2.143.357-3.953 2.244-3.721 4.89a4.225 4.225 0 003.772 3.854" mask="url(#prefix__b)"/></g><mask id="prefix__d" fill="#fff"><use xlink:href="#prefix__c"/></mask><path fill="#95BC0B" d="M3.886 18.979c2.342.231 4.262-1.45 4.634-3.383.423-2.196-.485-4.423.858-5.77 1.118-1.123 2.966-.523 4.925-.891a4.423 4.423 0 003.58-4.537c-.094-2.364-2.102-4.306-4.29-4.263-2.027.042-3.807 1.577-4.215 3.447-.498 2.292.508 4.227-.698 5.684-1.07 1.288-3.204.587-5.168.988-1.83.365-3.827 2.31-3.47 5.053.255 1.963 1.848 3.481 3.844 3.672" mask="url(#prefix__d)"/><path fill="#D80E82" d="M26.996 18.986c1.359.122 2.805-.565 3.52-1.344.346-.384.912-1.388 1.061-2.085.467-2.209-.508-5.003 1.093-6.123 1.302-.906 2.991-.257 4.815-.631 2.2-.451 3.651-2.607 3.505-4.77-.276-4.34-5.597-5.258-7.722-2.36-.872 1.188-.841 2.692-.926 4.714-.037 1.11-.151 2.555-1 3.123-1.118.756-3.145.266-4.893.635-2.376.505-4.372 3.566-3 6.5.55 1.18 1.859 2.194 3.547 2.34"/><g transform="translate(35 10)"><mask id="prefix__f" fill="#fff"><use xlink:href="#prefix__e"/></mask><path fill="#00BDB4" d="M4.782 8.994C2.177 9.12.04 7.16.102 4.477.175 1.77 2.534-.473 5.497.187 7.338.6 9.613 2.9 8.756 5.866c-.495 1.717-1.932 3.02-3.974 3.127" mask="url(#prefix__f)"/></g></g></svg>